<svg width="100" height="100" viewBox="0 0 100 100" fill="none" xmlns="http://www.w3.org/2000/svg">
<g clip-path="url(#clip0_3_3586)">
<path d="M100 100H96.078C96.0494 74.5273 85.9178 50.1061 67.9058 32.0942C49.8939 14.0822 25.4727 3.95059 0 3.922L0 0C26.5125 0.0299084 51.9305 10.5752 70.6776 29.3224C89.4248 48.0695 99.9701 73.4875 100 100Z" fill="#0000FF"/>
<path d="M78.184 100H74.3C74.3 60.9 40.967 29.082 0 29.082V25.2C43.111 25.2 78.184 58.753 78.184 100Z" fill="#0000FF"/>
<path d="M51.913 99.9999H47.92C47.906 87.295 42.8528 75.1146 33.8691 66.1308C24.8854 57.1471 12.7049 52.0939 0 52.0799L0 48.0869C13.7634 48.1025 26.9586 53.5769 36.6908 63.3091C46.423 73.0413 51.8974 86.2365 51.913 99.9999Z" fill="#0000FF"/>
<path d="M25.891 99.9999H22.056C22.0494 94.1523 19.7235 88.5461 15.5886 84.4112C11.4538 80.2764 5.84758 77.9505 0 77.9439L0 74.1089C6.86428 74.1168 13.4451 76.8472 18.2989 81.701C23.1527 86.5547 25.8831 93.1356 25.891 99.9999Z" fill="#0000FF"/>
</g>
<defs>
<clipPath id="clip0_3_3586">
<rect width="100" height="100" fill="white"/>
</clipPath>
</defs>
</svg>
