<svg width="100" height="100" viewBox="0 0 100 100" fill="none" xmlns="http://www.w3.org/2000/svg">
<g clip-path="url(#clip0_3_3687)">
<path d="M100 15.4V20.99L84.28 5.6L67.13 22.4L49.99 5.6L32.85 22.4L15.71 5.6L0 21V15.4L15.71 0L32.85 16.8L49.99 0L67.13 16.8L84.28 0L100 15.4Z" fill="#FF0000"/>
<path d="M100 34.7999V40.3899L84.28 24.9999L67.13 41.7999L49.99 24.9999L32.85 41.7999L15.71 24.9999L0 40.3999V34.7999L15.71 19.3999L32.85 36.1999L49.99 19.3999L67.13 36.1999L84.28 19.3999L100 34.7999Z" fill="#FF0000"/>
<path d="M100 73.5999V79.19L84.28 63.7999L67.13 80.5999L49.99 63.7999L32.85 80.5999L15.71 63.7999L0 79.1999V73.5999L15.71 58.2L32.85 75L49.99 58.2L67.13 75L84.28 58.2L100 73.5999Z" fill="#FF0000"/>
<path d="M100 54.2001V59.7901L84.28 44.4001L67.13 61.2001L49.99 44.4001L32.85 61.2001L15.71 44.4001L0 59.8V54.2001L15.71 38.8L32.85 55.6L49.99 38.8L67.13 55.6L84.28 38.8L100 54.2001Z" fill="#FF0000"/>
<path d="M100 93.0001V98.5901L84.28 83.2001L67.13 100L49.99 83.2001L32.85 100L15.71 83.2001L0 98.6001V93.0001L15.71 77.6001L32.85 94.4001L49.99 77.6001L67.13 94.4001L84.28 77.6001L100 93.0001Z" fill="#FF0000"/>
</g>
<defs>
<clipPath id="clip0_3_3687">
<rect width="100" height="100" fill="white"/>
</clipPath>
</defs>
</svg>
